<?xml version="1.0" encoding="utf-8"?>
<!-- Generator: Adobe Illustrator 17.1.0, SVG Export Plug-In . SVG Version: 6.00 Build 0)  -->
<!DOCTYPE svg PUBLIC "-//W3C//DTD SVG 1.1//EN" "http://www.w3.org/Graphics/SVG/1.1/DTD/svg11.dtd">
<svg version="1.1" id="图层_1" xmlns="http://www.w3.org/2000/svg" xmlns:xlink="http://www.w3.org/1999/xlink" x="0px" y="0px"
	 width="30px" height="30px" viewBox="0 0 30 30" enable-background="new 0 0 30 30" xml:space="preserve">
<path fill="#FFFFFF" d="M17,26.792v-15l5.293,5.293c0.389,0.389,1.025,0.389,1.414,0l1.586-1.586c0.389-0.389,0.389-1.025,0-1.414
	l-9.586-9.586c-0.389-0.389-1.025-0.389-1.414,0l-9.586,9.586c-0.389,0.389-0.389,1.025,0,1.414l1.586,1.586
	c0.389,0.389,1.025,0.389,1.414,0L13,11.792l0,15c0,0.549,0.449,1,1,1l2,0C16.549,27.792,17,27.341,17,26.792z"/>
<linearGradient id="SVGID_1_" gradientUnits="userSpaceOnUse" x1="-46.6611" y1="64.2924" x2="-21.885" y2="64.2924" gradientTransform="matrix(-4.489700e-011 1 -1 -4.489700e-011 79.2924 48.2924)">
	<stop  offset="0" style="stop-color:#000000"/>
	<stop  offset="1" style="stop-color:#636363"/>
</linearGradient>
<path fill="url(#SVGID_1_)" d="M17,25.792v-15l5.293,5.293c0.389,0.389,1.025,0.389,1.414,0l1.586-1.586
	c0.389-0.389,0.389-1.025,0-1.414l-9.586-9.586c-0.389-0.389-1.025-0.389-1.414,0l-9.586,9.586c-0.389,0.389-0.389,1.025,0,1.414
	l1.586,1.586c0.389,0.389,1.025,0.389,1.414,0L13,10.792l0,15c0,0.549,0.449,1,1,1l2,0C16.55,26.792,17,26.341,17,25.792z"/>
<rect fill="none" width="30" height="30"/>
</svg>
