<?xml version="1.0" encoding="utf-8"?>
<!-- Generator: Adobe Illustrator 17.1.0, SVG Export Plug-In . SVG Version: 6.00 Build 0)  -->
<!DOCTYPE svg PUBLIC "-//W3C//DTD SVG 1.1//EN" "http://www.w3.org/Graphics/SVG/1.1/DTD/svg11.dtd">
<svg version="1.1" id="图层_1" xmlns="http://www.w3.org/2000/svg" xmlns:xlink="http://www.w3.org/1999/xlink" x="0px" y="0px"
	 width="30px" height="30px" viewBox="0 0 30 30" enable-background="new 0 0 30 30" xml:space="preserve">
<path fill="#FFFFFF" d="M13,5.208v15l-5.293-5.293c-0.389-0.389-1.025-0.389-1.414,0l-1.586,1.586c-0.389,0.389-0.389,1.025,0,1.414
	l9.586,9.586c0.389,0.389,1.025,0.389,1.414,0l9.586-9.586c0.389-0.389,0.389-1.025,0-1.414l-1.586-1.586
	c-0.389-0.389-1.025-0.389-1.414,0L17,20.208v-15c0-0.549-0.449-1-1-1h-2C13.451,4.208,13,4.659,13,5.208z"/>
<linearGradient id="SVGID_1_" gradientUnits="userSpaceOnUse" x1="-45.6611" y1="64.2924" x2="-20.885" y2="64.2924" gradientTransform="matrix(4.489700e-011 -1 1 4.489700e-011 -49.2924 -17.2924)">
	<stop  offset="0" style="stop-color:#636363"/>
	<stop  offset="1" style="stop-color:#000000"/>
</linearGradient>
<path fill="url(#SVGID_1_)" d="M13,4.208v15l-5.293-5.293c-0.389-0.389-1.025-0.389-1.414,0l-1.586,1.586
	c-0.389,0.389-0.389,1.025,0,1.414l9.586,9.586c0.389,0.389,1.025,0.389,1.414,0l9.586-9.586c0.389-0.389,0.389-1.025,0-1.414
	l-1.586-1.586c-0.389-0.389-1.025-0.389-1.414,0L17,19.208v-15c0-0.549-0.449-1-1-1h-2C13.45,3.208,13,3.659,13,4.208z"/>
<rect fill="none" width="30" height="30"/>
</svg>
