<?xml version="1.0" encoding="utf-8"?>
<!-- Generator: Adobe Illustrator 17.1.0, SVG Export Plug-In . SVG Version: 6.00 Build 0)  -->
<!DOCTYPE svg PUBLIC "-//W3C//DTD SVG 1.1//EN" "http://www.w3.org/Graphics/SVG/1.1/DTD/svg11.dtd">
<svg version="1.1" id="图层_1" xmlns="http://www.w3.org/2000/svg" xmlns:xlink="http://www.w3.org/1999/xlink" x="0px" y="0px"
	 width="30px" height="30px" viewBox="0 0 30 30" enable-background="new 0 0 30 30" xml:space="preserve">
<rect fill="none" width="30" height="30"/>
<path opacity="0.8" fill="#626262" d="M24.618,21.845l-3.868-3.869c0.823-1.32,1.306-2.874,1.306-4.545
	c0-4.764-3.861-8.624-8.624-8.624s-8.624,3.861-8.624,8.624c0,4.762,3.861,8.624,8.624,8.624c1.671,0,3.225-0.484,4.546-1.306
	l3.868,3.868c0.767,0.767,2.007,0.767,2.771,0C25.383,23.851,25.383,22.611,24.618,21.845z M13.432,19.311
	c-3.243,0-5.88-2.638-5.88-5.88c0-3.243,2.637-5.88,5.88-5.88s5.88,2.637,5.88,5.88C19.312,16.673,16.675,19.311,13.432,19.311z"/>
</svg>
