<?xml version="1.0" encoding="utf-8"?>
<!-- Generator: Adobe Illustrator 17.1.0, SVG Export Plug-In . SVG Version: 6.00 Build 0)  -->
<!DOCTYPE svg PUBLIC "-//W3C//DTD SVG 1.1//EN" "http://www.w3.org/Graphics/SVG/1.1/DTD/svg11.dtd" [
	<!ENTITY ns_extend "http://ns.adobe.com/Extensibility/1.0/">
	<!ENTITY ns_ai "http://ns.adobe.com/AdobeIllustrator/10.0/">
	<!ENTITY ns_graphs "http://ns.adobe.com/Graphs/1.0/">
	<!ENTITY ns_vars "http://ns.adobe.com/Variables/1.0/">
	<!ENTITY ns_imrep "http://ns.adobe.com/ImageReplacement/1.0/">
	<!ENTITY ns_sfw "http://ns.adobe.com/SaveForWeb/1.0/">
	<!ENTITY ns_custom "http://ns.adobe.com/GenericCustomNamespace/1.0/">
	<!ENTITY ns_adobe_xpath "http://ns.adobe.com/XPath/1.0/">
]>
<svg version="1.1" id="图层_1" xmlns:x="&ns_extend;" xmlns:i="&ns_ai;" xmlns:graph="&ns_graphs;"
	 xmlns="http://www.w3.org/2000/svg" xmlns:xlink="http://www.w3.org/1999/xlink" x="0px" y="0px" width="37px" height="37px"
	 viewBox="0 0 37 37" enable-background="new 0 0 37 37" xml:space="preserve">
<metadata>
	<sfw  xmlns="&ns_sfw;">
		<slices></slices>
		<sliceSourceBounds  height="37" width="37" x="1" y="2" bottomLeftOrigin="true"></sliceSourceBounds>
	</sfw>
</metadata>
<path fill-opacity="0.15" d="M7.121,18.503c0-8.4,2.978-11.378,11.378-11.378c8.402,0,11.379,2.978,11.379,11.378
	c0,8.401-2.978,11.379-11.379,11.379C10.099,29.882,7.121,26.904,7.121,18.503z M27.896,18.503c0-7.023-2.371-9.395-9.396-9.395
	c-7.022,0-9.392,2.371-9.392,9.395c0,7.022,2.37,9.393,9.392,9.393C25.524,27.896,27.896,25.525,27.896,18.503z"/>
<rect fill="none" width="37" height="37"/>
<radialGradient id="SVGID_1_" cx="18.4991" cy="32.438" r="22.1267" gradientTransform="matrix(-4.371139e-008 1 1 4.371139e-008 -2.9971 0.0034)" gradientUnits="userSpaceOnUse">
	<stop  offset="0" style="stop-color:#FFFFFF"/>
	<stop  offset="1" style="stop-color:#FFFFFF;stop-opacity:0"/>
</radialGradient>
<path fill="url(#SVGID_1_)" d="M7.121,18.502c0-8.4,2.978-11.378,11.378-11.378c8.402,0,11.379,2.978,11.379,11.378
	c0,8.401-2.978,11.379-11.379,11.379C10.099,29.882,7.121,26.903,7.121,18.502z M27.896,18.502c0-7.023-2.371-9.395-9.396-9.395
	c-7.022,0-9.392,2.371-9.392,9.395c0,7.022,2.37,9.393,9.392,9.393C25.524,27.896,27.896,25.524,27.896,18.502z"/>
</svg>
