<?xml version="1.0" encoding="utf-8"?>
<!-- Generator: Adobe Illustrator 17.1.0, SVG Export Plug-In . SVG Version: 6.00 Build 0)  -->
<!DOCTYPE svg PUBLIC "-//W3C//DTD SVG 1.1//EN" "http://www.w3.org/Graphics/SVG/1.1/DTD/svg11.dtd">
<svg version="1.1" id="图层_1" xmlns="http://www.w3.org/2000/svg" xmlns:xlink="http://www.w3.org/1999/xlink" x="0px" y="0px"
	 width="96px" height="16px" viewBox="0 0 96 16" enable-background="new 0 0 96 16" xml:space="preserve">
<g>
	<g>
		<circle fill="#FFFFFF" fill-opacity="0.4" cx="30.239" cy="8.595" r="2.386"/>
		<circle fill-opacity="0.9" cx="30.239" cy="7.405" r="2.386"/>
	</g>
	<rect x="26.239" y="4" fill="none" width="8" height="8"/>
</g>
<g>
	<g>
		<circle fill="#FFFFFF" fill-opacity="0.4" cx="42.08" cy="8.595" r="2.386"/>
		<circle fill-opacity="0.9" cx="42.08" cy="7.405" r="2.386"/>
	</g>
	<rect x="38.08" y="4" fill="none" width="8" height="8"/>
</g>
<g>
	<g>
		<circle fill="#FFFFFF" fill-opacity="0.4" cx="53.92" cy="8.595" r="2.386"/>
		<circle fill-opacity="0.9" cx="53.92" cy="7.405" r="2.386"/>
	</g>
	<rect x="49.92" y="4" fill="none" width="8" height="8"/>
</g>
<path fill-opacity="0.5" d="M68.767,7.954c0,2.226-0.777,3.006-3.006,3.006c-2.225,0-3.006-0.78-3.006-3.006
	c0-2.229,0.782-3.009,3.006-3.009C67.99,4.945,68.767,5.724,68.767,7.954z"/>
<path fill="#F2F2F2" fill-opacity="0.7" d="M68.767,7.201c0,2.227-0.777,3.006-3.006,3.006c-2.225,0-3.006-0.779-3.006-3.006
	c0-2.228,0.782-3.007,3.006-3.007C67.99,4.194,68.767,4.973,68.767,7.201z"/>
<rect x="61.761" y="4" fill="none" width="8" height="8"/>
<rect fill="none" width="96" height="16"/>
</svg>
