<?xml version="1.0" encoding="utf-8"?>
<!-- Generator: Adobe Illustrator 17.1.0, SVG Export Plug-In . SVG Version: 6.00 Build 0)  -->
<!DOCTYPE svg PUBLIC "-//W3C//DTD SVG 1.1//EN" "http://www.w3.org/Graphics/SVG/1.1/DTD/svg11.dtd">
<svg version="1.1" id="图层_1" xmlns="http://www.w3.org/2000/svg" xmlns:xlink="http://www.w3.org/1999/xlink" x="0px" y="0px"
	 width="96px" height="16px" viewBox="0 0 96 16" enable-background="new 0 0 96 16" xml:space="preserve">
<g>
	<g>
		<circle fill="#FFFFFF" fill-opacity="0.4" cx="65.761" cy="8.595" r="2.386"/>
		<circle fill-opacity="0.9" cx="65.761" cy="7.405" r="2.386"/>
	</g>
	<rect x="61.761" y="4" fill="none" width="8" height="8"/>
</g>
<g>
	<g>
		<circle fill="#FFFFFF" fill-opacity="0.4" cx="53.92" cy="8.595" r="2.386"/>
		<circle fill-opacity="0.9" cx="53.92" cy="7.405" r="2.386"/>
	</g>
	<rect x="49.92" y="4" fill="none" width="8" height="8"/>
</g>
<g>
	<g>
		<circle fill="#FFFFFF" fill-opacity="0.4" cx="42.08" cy="8.595" r="2.386"/>
		<circle fill-opacity="0.9" cx="42.08" cy="7.405" r="2.386"/>
	</g>
	<rect x="38.08" y="4" fill="none" width="8" height="8"/>
</g>
<path fill-opacity="0.5" d="M30.239,4.945c2.225,0,3.006,0.78,3.006,3.009c0,2.226-0.782,3.006-3.006,3.006
	c-2.23,0-3.006-0.78-3.006-3.006C27.233,5.724,28.01,4.945,30.239,4.945z"/>
<path fill="#F2F2F2" fill-opacity="0.7" d="M30.239,4.194c2.225,0,3.006,0.779,3.006,3.007c0,2.227-0.782,3.006-3.006,3.006
	c-2.23,0-3.006-0.779-3.006-3.006C27.233,4.973,28.01,4.194,30.239,4.194z"/>
<rect x="26.239" y="4" fill="none" width="8" height="8"/>
<rect fill="none" width="96" height="16"/>
</svg>
