<?xml version="1.0" encoding="utf-8"?>
<!-- Generator: Adobe Illustrator 14.0.0, SVG Export Plug-In . SVG Version: 6.00 Build 43363)  -->
<!DOCTYPE svg PUBLIC "-//W3C//DTD SVG 1.1//EN" "http://www.w3.org/Graphics/SVG/1.1/DTD/svg11.dtd">
<svg version="1.1" id="图层_1" xmlns="http://www.w3.org/2000/svg" xmlns:xlink="http://www.w3.org/1999/xlink" x="0px" y="0px"
	 width="30px" height="30px" viewBox="0 0 30 30" enable-background="new 0 0 30 30" xml:space="preserve">
<path fill="#DD1810" d="M13.48,6.798v11.4l-4.022-4.022c-0.295-0.295-0.779-0.295-1.074,0L7.177,15.38
	c-0.295,0.295-0.295,0.779,0,1.074l7.286,7.286c0.295,0.295,0.779,0.295,1.074,0l7.286-7.286c0.295-0.295,0.295-0.779,0-1.074
	l-1.206-1.206c-0.295-0.295-0.779-0.295-1.074,0l-4.023,4.023v-11.4c0-0.417-0.34-0.76-0.76-0.76h-1.52
	C13.822,6.038,13.48,6.381,13.48,6.798z"/>
<rect fill="none" width="30" height="30"/>
</svg>
