<?xml version="1.0" encoding="utf-8"?>
<!-- Generator: Adobe Illustrator 17.1.0, SVG Export Plug-In . SVG Version: 6.00 Build 0)  -->
<!DOCTYPE svg PUBLIC "-//W3C//DTD SVG 1.1//EN" "http://www.w3.org/Graphics/SVG/1.1/DTD/svg11.dtd">
<svg version="1.1" id="图层_1" xmlns="http://www.w3.org/2000/svg" xmlns:xlink="http://www.w3.org/1999/xlink" x="0px" y="0px"
	 width="30px" height="30px" viewBox="0 0 30 30" enable-background="new 0 0 30 30" xml:space="preserve">
<g>
	<rect fill="none" width="30" height="30"/>
	<path fill="#626262" d="M23.55,13.29h-6.84V6.45c0-0.47-0.386-0.855-0.855-0.855h-1.71c-0.471,0-0.855,0.385-0.855,0.855v6.84H6.45
		c-0.47,0-0.855,0.385-0.855,0.855v1.71c0,0.471,0.385,0.855,0.855,0.855h6.84v6.84c0,0.471,0.384,0.855,0.855,0.855h1.71
		c0.469,0,0.855-0.384,0.855-0.855v-6.84h6.84c0.469,0,0.855-0.384,0.855-0.855v-1.71C24.405,13.675,24.019,13.29,23.55,13.29z"/>
</g>
</svg>
