<?xml version="1.0" encoding="utf-8"?>
<!-- Generator: Adobe Illustrator 18.0.0, SVG Export Plug-In . SVG Version: 6.00 Build 0)  -->
<!DOCTYPE svg PUBLIC "-//W3C//DTD SVG 1.1//EN" "http://www.w3.org/Graphics/SVG/1.1/DTD/svg11.dtd">
<svg version="1.1" id="图层_1" xmlns="http://www.w3.org/2000/svg" xmlns:xlink="http://www.w3.org/1999/xlink" x="0px" y="0px"
	 viewBox="0 0 96 96" enable-background="new 0 0 96 96" xml:space="preserve">
<g id="DO_NOT_EDIT_-_BOUNDING_BOX">
</g>
<g id="DO_NOT_EDIT_-_SHADOW">
</g>
<g id="GRAY_BACKGROUNDS">
</g>
<g>
	<rect x="-8.7" y="-9.2" fill="none" width="113.3" height="113.3"/>
	<path fill-opacity="0.4" d="M95.2,48.7c0,35-12.2,47.2-47.2,47.2c-35,0-47.2-12.2-47.2-47.2C0.8,13.7,13,1.5,48,1.5
		C83,1.5,95.2,13.7,95.2,48.7z"/>
	
		<linearGradient id="SVGID_1_" gradientUnits="userSpaceOnUse" x1="255.402" y1="1853.6558" x2="255.402" y2="1948.0868" gradientTransform="matrix(1 0 0 1 -207.3949 -1853.7607)">
		<stop  offset="0" style="stop-color:#8E8E8E"/>
		<stop  offset="1" style="stop-color:#575757"/>
	</linearGradient>
	<path fill="url(#SVGID_1_)" d="M95.2,47.5c0,35-12.2,47.2-47.2,47.2c-35,0-47.2-12.2-47.2-47.2C0.8,12.5,13,0.3,48,0.3
		C83,0.3,95.2,12.5,95.2,47.5z"/>
	
		<linearGradient id="SVGID_2_" gradientUnits="userSpaceOnUse" x1="255.402" y1="1854.3519" x2="255.402" y2="1947.892" gradientTransform="matrix(1 0 0 1 -207.3949 -1853.7607)">
		<stop  offset="0" style="stop-color:#FFFFFF"/>
		<stop  offset="1" style="stop-color:#FFFFFF;stop-opacity:0"/>
	</linearGradient>
	<path fill="url(#SVGID_2_)" fill-opacity="0.15" d="M48,0.3C13,0.3,0.8,12.5,0.8,47.5c0,35,12.2,47.2,47.2,47.2
		c35,0,47.2-12.2,47.2-47.2C95.2,12.5,83,0.3,48,0.3z M48,93.5c-34.4,0-46-11.6-46-46s11.6-46,46-46c34.4,0,46,11.6,46,46
		S82.4,93.5,48,93.5z"/>
	<g>
		<path fill="#010202" fill-opacity="2.000000e-002" d="M25.2,80.6c-1.3,0-2.5-0.5-3.4-1.4c-0.9-0.9-1.4-2.1-1.3-3.4L21.6,29
			c0.1-2.6,2.1-4.6,4.7-4.6h5.9C37.8,13,45.7,12.1,48,12.1c2.3,0,10.2,0.9,15.8,12.4h5.9c2.6,0,4.7,2.1,4.7,4.7l1.2,46.6
			c0,1.3-0.5,2.5-1.3,3.4c-0.9,0.9-2.1,1.4-3.4,1.4L25.2,80.6L25.2,80.6z M50.6,24.5c-0.9-0.9-1.8-1.4-2.6-1.4
			c-0.8,0-1.6,0.5-2.6,1.4H50.6z"/>
		<path fill="#010202" fill-opacity="5.000000e-002" d="M25.2,79.4c-0.9,0-1.9-0.4-2.5-1.1c-0.7-0.7-1-1.6-1-2.5l1.2-46.7
			c0.1-1.9,1.6-3.4,3.5-3.4h6.6C38.3,14.2,45.8,13.3,48,13.3c2.2,0,9.7,0.9,15.1,12.4h6.6c1.9,0,3.5,1.6,3.5,3.5l1.2,46.6
			c0,1-0.3,1.9-1,2.6c-0.7,0.7-1.6,1.1-2.5,1.1L25.2,79.4L25.2,79.4z M53,25.6c-1.3-1.9-3.1-3.7-5-3.7c-2,0-3.7,1.8-5,3.7H53z"/>
		<path fill="#010202" fill-opacity="0.1" d="M25.2,78.2c-0.6,0-1.2-0.3-1.7-0.7c-0.4-0.5-0.7-1.1-0.7-1.7L24,29.1
			c0-1.3,1.1-2.3,2.3-2.3h7.3C38.8,15.3,45.9,14.4,48,14.4c2.1,0,9.2,0.9,14.3,12.4h7.4c1.3,0,2.3,1.1,2.3,2.3l1.2,46.6
			c0,0.6-0.2,1.3-0.7,1.7c-0.5,0.5-1.1,0.7-1.7,0.7L25.2,78.2L25.2,78.2z M55.2,26.8c-1.8-3-4.2-6-7.2-6.1c-3,0-5.4,3.1-7.2,6.1
			H55.2z"/>
		<path fill="#010202" fill-opacity="0.2" d="M25.2,77c-0.3,0-0.6-0.1-0.8-0.4c-0.2-0.2-0.3-0.5-0.3-0.9l1.2-46.7
			c0-0.6,0.5-1.1,1.2-1.1h8.1C39.3,16.5,46,15.6,48,15.6c2,0,8.7,0.9,13.6,12.4h8.2c0.6,0,1.2,0.5,1.2,1.2L72,75.8
			c0,0.3-0.1,0.7-0.3,0.9S71.2,77,70.9,77L25.2,77L25.2,77z M57.2,28c-0.2-0.3-0.3-0.6-0.5-0.9c-2-3.5-4.8-7.4-8.7-7.5
			c-3.9,0-6.7,4-8.7,7.5c-0.2,0.3-0.3,0.6-0.5,0.9H57.2z"/>
		<path fill="#010202" fill-opacity="0.2" d="M70.9,75.8l-1.2-46.5v-0.1h-8.9c-4-9.9-9.5-12.4-12.8-12.4c-3.1,0-8.7,2.3-12.8,12.4
			h-8.9l-1.2,46.7L70.9,75.8L70.9,75.8z M36.9,29.1c0.4-0.9,0.8-1.8,1.3-2.7c2.1-3.7,5.2-8,9.7-8.1c4.5,0.1,7.6,4.4,9.7,8.1
			c0.5,0.9,1,1.8,1.3,2.7H36.9z"/>
		
			<linearGradient id="SVGID_3_" gradientUnits="userSpaceOnUse" x1="267.6136" y1="2879.0847" x2="267.6136" y2="2822.761" gradientTransform="matrix(1 0 0 1 -219.6024 -2795.1191)">
			<stop  offset="0" style="stop-color:#E6E2D8"/>
			<stop  offset="1" style="stop-color:#FFFFFF"/>
		</linearGradient>
		<polygon fill="url(#SVGID_3_)" points="70.9,74.2 25.2,74.2 26.3,27.4 69.7,27.4 		"/>
		
			<linearGradient id="SVGID_4_" gradientUnits="userSpaceOnUse" x1="267.616" y1="2833.7893" x2="267.616" y2="2823.8992" gradientTransform="matrix(1 0 0 1 -219.6024 -2795.1191)">
			<stop  offset="0" style="stop-color:#FFFFFF"/>
			<stop  offset="1" style="stop-color:#F1EFE9"/>
		</linearGradient>
		<polygon fill="url(#SVGID_4_)" points="69.7,37.2 26.3,37.2 26.3,27.5 69.7,27.5 		"/>
		<polygon fill="#FFFFFF" points="69.7,28.6 26.3,28.6 26.3,27.4 69.7,27.4 		"/>
		<path fill="#231F20" fill-opacity="0.3" d="M37.7,27.5c-3,3-4.2,5.6-4.2,5.7c-0.4,1,1.1,1.5,1.4,0.6l0,0c0,0,0.1-0.2,0.3-0.5
			c0.6-1,2.1-3.4,4.8-5.8L37.7,27.5L37.7,27.5z"/>
		<path fill="#231F20" fill-opacity="0.3" d="M58.4,27.5H56c1.2,1.3,3,2.4,5.1,6.3c0.4,0.9,1.9,0.4,1.4-0.6
			C62.6,33.1,61.4,30.5,58.4,27.5z"/>
		<path fill="#FFFFFF" d="M35.3,34.9c0,0.6-0.5,1.2-1.2,1.2c-0.6,0-1.2-0.5-1.2-1.2c0-0.7,0.5-1.2,1.2-1.2
			C34.8,33.7,35.3,34.2,35.3,34.9z"/>
		<path fill="#1A1A1A" d="M35.3,33.7c0,0.6-0.5,1.2-1.2,1.2c-0.6,0-1.2-0.5-1.2-1.2c0-0.7,0.5-1.2,1.2-1.2
			C34.8,32.5,35.3,33.1,35.3,33.7z"/>
		<path fill="#FFFFFF" d="M63.1,34.9c0,0.6-0.5,1.2-1.2,1.2c-0.6,0-1.2-0.5-1.2-1.2c0-0.7,0.5-1.2,1.2-1.2
			C62.6,33.7,63.1,34.2,63.1,34.9z"/>
		<path fill="#1A1A1A" d="M63.1,33.7c0,0.6-0.5,1.2-1.2,1.2c-0.6,0-1.2-0.5-1.2-1.2c0-0.7,0.5-1.2,1.2-1.2
			C62.6,32.5,63.1,33.1,63.1,33.7z"/>
		
			<linearGradient id="SVGID_5_" gradientUnits="userSpaceOnUse" x1="267.5943" y1="2821.1982" x2="267.5943" y2="2829.0142" gradientTransform="matrix(1 0 0 1 -219.6024 -2795.1191)">
			<stop  offset="0" style="stop-color:#FFFFFF"/>
			<stop  offset="0.4662" style="stop-color:#FDFDFD"/>
			<stop  offset="0.634" style="stop-color:#F7F7F7"/>
			<stop  offset="0.7537" style="stop-color:#ECEBEC"/>
			<stop  offset="0.8505" style="stop-color:#DCDBDC"/>
			<stop  offset="0.9324" style="stop-color:#C9C8C8"/>
			<stop  offset="1" style="stop-color:#B3B2B2"/>
		</linearGradient>
		<path fill="url(#SVGID_5_)" d="M62.6,33.2C58.8,18.4,51.8,15.1,48,15.1c-3.6,0-10.7,3.1-14.6,18.1c-0.3,1,1.3,1.4,1.5,0.4
			c0.3-1.2,1.3-5.2,3.4-8.9c2.1-3.7,5.2-8,9.7-8.1c4.5,0,7.6,4.4,9.7,8.1c2.1,3.7,3.1,7.7,3.4,8.9C61.3,34.6,62.9,34.2,62.6,33.2z"
			/>
	</g>
	<g>
		<path opacity="0.2" fill="#FFFFFF" enable-background="new    " d="M61,72c-2,0-3.5-1.6-3.5-3.5c0,2-1.6,3.5-3.5,3.5h-3.5
			c-2,0-3.5-1.6-3.5-3.5v-3.5c0-2,1.6-3.5,3.5-3.5c-2,0-3.5-1.6-3.5-3.5v-3.5c0-2,1.6-3.5,3.5-3.5h3.5c2,0,3.5,1.6,3.5,3.5
			c0-2,1.6-3.5,3.5-3.5h3.5c2,0,3.5,1.6,3.5,3.5v3.5c0,2-1.6,3.5-3.5,3.5c2,0,3.5,1.6,3.5,3.5v3.5c0,2-1.6,3.5-3.5,3.5H61z
			 M53.9,61.4c2,0,3.5,1.6,3.5,3.5c0-2,1.6-3.5,3.5-3.5c-2,0-3.5-1.6-3.5-3.5C57.5,59.8,55.9,61.4,53.9,61.4z"/>
		<path opacity="0.5" fill="#FFFFFF" enable-background="new    " d="M56.3,57.8c0,1.3-1.1,2.4-2.4,2.4h-3.5c-1.3,0-2.4-1.1-2.4-2.4
			v-3.5c0-1.3,1.1-2.4,2.4-2.4h3.5c1.3,0,2.4,1.1,2.4,2.4V57.8z M66.9,54.3c0-1.3-1.1-2.4-2.4-2.4H61c-1.3,0-2.4,1.1-2.4,2.4v3.5
			c0,1.3,1.1,2.4,2.4,2.4h3.5c1.3,0,2.4-1.1,2.4-2.4V54.3z M66.9,64.9c0-1.3-1.1-2.4-2.4-2.4H61c-1.3,0-2.4,1.1-2.4,2.4v3.5
			c0,1.3,1.1,2.4,2.4,2.4h3.5c1.3,0,2.4-1.1,2.4-2.4V64.9z M56.3,64.9c0-1.3-1.1-2.4-2.4-2.4h-3.5c-1.3,0-2.4,1.1-2.4,2.4v3.5
			c0,1.3,1.1,2.4,2.4,2.4h3.5c1.3,0,2.4-1.1,2.4-2.4V64.9z"/>
		
			<linearGradient id="SVGID_6_" gradientUnits="userSpaceOnUse" x1="52.1384" y1="-3.540153e-002" x2="52.1384" y2="8.2273" gradientTransform="matrix(1 0 0 -1 0 59)">
			<stop  offset="0" style="stop-color:#26ACFF"/>
			<stop  offset="1" style="stop-color:#0D7CFF"/>
		</linearGradient>
		<path fill="url(#SVGID_6_)" d="M56.3,56.6c0,1.3-1.1,2.4-2.4,2.4h-3.5c-1.3,0-2.4-1.1-2.4-2.4v-3.5c0-1.3,1.1-2.4,2.4-2.4h3.5
			c1.3,0,2.4,1.1,2.4,2.4V56.6z"/>
		
			<linearGradient id="SVGID_7_" gradientUnits="userSpaceOnUse" x1="62.7619" y1="-3.540153e-002" x2="62.7619" y2="8.2273" gradientTransform="matrix(1 0 0 -1 0 59)">
			<stop  offset="0" style="stop-color:#26ACFF"/>
			<stop  offset="1" style="stop-color:#0D7CFF"/>
		</linearGradient>
		<path fill="url(#SVGID_7_)" d="M66.9,56.6c0,1.3-1.1,2.4-2.4,2.4H61c-1.3,0-2.4-1.1-2.4-2.4v-3.5c0-1.3,1.1-2.4,2.4-2.4h3.5
			c1.3,0,2.4,1.1,2.4,2.4V56.6z"/>
		
			<linearGradient id="SVGID_8_" gradientUnits="userSpaceOnUse" x1="62.7619" y1="-10.6589" x2="62.7619" y2="-2.3962" gradientTransform="matrix(1 0 0 -1 0 59)">
			<stop  offset="0" style="stop-color:#26ACFF"/>
			<stop  offset="1" style="stop-color:#0D7CFF"/>
		</linearGradient>
		<path fill="url(#SVGID_8_)" d="M66.9,67.3c0,1.3-1.1,2.4-2.4,2.4H61c-1.3,0-2.4-1.1-2.4-2.4v-3.5c0-1.3,1.1-2.4,2.4-2.4h3.5
			c1.3,0,2.4,1.1,2.4,2.4V67.3z"/>
		
			<linearGradient id="SVGID_9_" gradientUnits="userSpaceOnUse" x1="52.1384" y1="-10.6589" x2="52.1384" y2="-2.3962" gradientTransform="matrix(1 0 0 -1 0 59)">
			<stop  offset="0" style="stop-color:#26ACFF"/>
			<stop  offset="1" style="stop-color:#0D7CFF"/>
		</linearGradient>
		<path fill="url(#SVGID_9_)" d="M56.3,67.3c0,1.3-1.1,2.4-2.4,2.4h-3.5c-1.3,0-2.4-1.1-2.4-2.4v-3.5c0-1.3,1.1-2.4,2.4-2.4h3.5
			c1.3,0,2.4,1.1,2.4,2.4V67.3z"/>
		<g>
			<path opacity="5.000000e-002" enable-background="new    " d="M53.9,61.4h-3.5c-1.3,0-2.4,1.1-2.4,2.4v3.5c0,1.3,1.1,2.4,2.4,2.4
				h3.5c1.3,0,2.4-1.1,2.4-2.4v-3.5C56.3,62.4,55.2,61.4,53.9,61.4z M55.1,67.3c0,0.7-0.5,1.2-1.2,1.2h-3.5c-0.7,0-1.2-0.5-1.2-1.2
				v-3.5c0-0.7,0.5-1.2,1.2-1.2h3.5c0.7,0,1.2,0.5,1.2,1.2V67.3z"/>
			<path opacity="5.000000e-002" enable-background="new    " d="M64.5,61.4H61c-1.3,0-2.4,1.1-2.4,2.4v3.5c0,1.3,1.1,2.4,2.4,2.4
				h3.5c1.3,0,2.4-1.1,2.4-2.4v-3.5C66.9,62.4,65.8,61.4,64.5,61.4z M65.7,67.3c0,0.7-0.5,1.2-1.2,1.2H61c-0.7,0-1.2-0.5-1.2-1.2
				v-3.5c0-0.7,0.5-1.2,1.2-1.2h3.5c0.7,0,1.2,0.5,1.2,1.2V67.3z"/>
			<path opacity="5.000000e-002" enable-background="new    " d="M53.9,50.7h-3.5c-1.3,0-2.4,1.1-2.4,2.4v3.5c0,1.3,1.1,2.4,2.4,2.4
				h3.5c1.3,0,2.4-1.1,2.4-2.4v-3.5C56.3,51.8,55.2,50.7,53.9,50.7z M55.1,56.6c0,0.7-0.5,1.2-1.2,1.2h-3.5c-0.7,0-1.2-0.5-1.2-1.2
				v-3.5c0-0.7,0.5-1.2,1.2-1.2h3.5c0.7,0,1.2,0.5,1.2,1.2V56.6z"/>
			<path opacity="5.000000e-002" enable-background="new    " d="M64.5,50.7H61c-1.3,0-2.4,1.1-2.4,2.4v3.5c0,1.3,1.1,2.4,2.4,2.4
				h3.5c1.3,0,2.4-1.1,2.4-2.4v-3.5C66.9,51.8,65.8,50.7,64.5,50.7z M65.7,56.6c0,0.7-0.5,1.2-1.2,1.2H61c-0.7,0-1.2-0.5-1.2-1.2
				v-3.5c0-0.7,0.5-1.2,1.2-1.2h3.5c0.7,0,1.2,0.5,1.2,1.2V56.6z"/>
		</g>
		<g>
			<path opacity="5.000000e-002" enable-background="new    " d="M53.9,61.4h-3.5c-1.3,0-2.4,1.1-2.4,2.4v2.4c0-1.3,1.1-2.4,2.4-2.4
				h3.5c1.3,0,2.4,1.1,2.4,2.4v-2.4C56.3,62.4,55.2,61.4,53.9,61.4z"/>
			<path opacity="5.000000e-002" enable-background="new    " d="M53.9,50.7h-3.5c-1.3,0-2.4,1.1-2.4,2.4v2.4c0-1.3,1.1-2.4,2.4-2.4
				h3.5c1.3,0,2.4,1.1,2.4,2.4v-2.4C56.3,51.8,55.2,50.7,53.9,50.7z"/>
			<path opacity="5.000000e-002" enable-background="new    " d="M64.5,50.7H61c-1.3,0-2.4,1.1-2.4,2.4v2.4c0-1.3,1.1-2.4,2.4-2.4
				h3.5c1.3,0,2.4,1.1,2.4,2.4v-2.4C66.9,51.8,65.8,50.7,64.5,50.7z"/>
			<path opacity="5.000000e-002" enable-background="new    " d="M64.5,61.4H61c-1.3,0-2.4,1.1-2.4,2.4v2.4c0-1.3,1.1-2.4,2.4-2.4
				h3.5c1.3,0,2.4,1.1,2.4,2.4v-2.4C66.9,62.4,65.8,61.4,64.5,61.4z"/>
		</g>
		<g>
			<path opacity="5.000000e-002" enable-background="new    " d="M53.9,61.4h-3.5c-1.3,0-2.4,1.1-2.4,2.4v1.2c0-1.3,1.1-2.4,2.4-2.4
				h3.5c1.3,0,2.4,1.1,2.4,2.4v-1.2C56.3,62.4,55.2,61.4,53.9,61.4z"/>
			<path opacity="5.000000e-002" enable-background="new    " d="M53.9,50.7h-3.5c-1.3,0-2.4,1.1-2.4,2.4v1.2c0-1.3,1.1-2.4,2.4-2.4
				h3.5c1.3,0,2.4,1.1,2.4,2.4v-1.2C56.3,51.8,55.2,50.7,53.9,50.7z"/>
			<path opacity="5.000000e-002" enable-background="new    " d="M64.5,61.4H61c-1.3,0-2.4,1.1-2.4,2.4v1.2c0-1.3,1.1-2.4,2.4-2.4
				h3.5c1.3,0,2.4,1.1,2.4,2.4v-1.2C66.9,62.4,65.8,61.4,64.5,61.4z"/>
			<path opacity="5.000000e-002" enable-background="new    " d="M64.5,50.7H61c-1.3,0-2.4,1.1-2.4,2.4v1.2c0-1.3,1.1-2.4,2.4-2.4
				h3.5c1.3,0,2.4,1.1,2.4,2.4v-1.2C66.9,51.8,65.8,50.7,64.5,50.7z"/>
		</g>
	</g>
</g>
</svg>
