<?xml version="1.0" encoding="utf-8"?>
<!-- Generator: Adobe Illustrator 17.1.0, SVG Export Plug-In . SVG Version: 6.00 Build 0)  -->
<!DOCTYPE svg PUBLIC "-//W3C//DTD SVG 1.1//EN" "http://www.w3.org/Graphics/SVG/1.1/DTD/svg11.dtd" [
	<!ENTITY ns_extend "http://ns.adobe.com/Extensibility/1.0/">
	<!ENTITY ns_ai "http://ns.adobe.com/AdobeIllustrator/10.0/">
	<!ENTITY ns_graphs "http://ns.adobe.com/Graphs/1.0/">
	<!ENTITY ns_vars "http://ns.adobe.com/Variables/1.0/">
	<!ENTITY ns_imrep "http://ns.adobe.com/ImageReplacement/1.0/">
	<!ENTITY ns_sfw "http://ns.adobe.com/SaveForWeb/1.0/">
	<!ENTITY ns_custom "http://ns.adobe.com/GenericCustomNamespace/1.0/">
	<!ENTITY ns_adobe_xpath "http://ns.adobe.com/XPath/1.0/">
]>
<svg version="1.1"
	 id="svg2" xmlns:x="&ns_extend;" xmlns:i="&ns_ai;" xmlns:graph="&ns_graphs;" xmlns:cc="http://creativecommons.org/ns#" xmlns:svg="http://www.w3.org/2000/svg" xmlns:rdf="http://www.w3.org/1999/02/22-rdf-syntax-ns#" xmlns:inkscape="http://www.inkscape.org/namespaces/inkscape" xmlns:sodipodi="http://sodipodi.sourceforge.net/DTD/sodipodi-0.dtd" xmlns:dc="http://purl.org/dc/elements/1.1/" inkscape:version="0.48.2 r9819" sodipodi:docname="release-refresh-inverse.svg"
	 xmlns="http://www.w3.org/2000/svg" xmlns:xlink="http://www.w3.org/1999/xlink" x="0px" y="0px" width="30px" height="30px"
	 viewBox="0 0 30 30" enable-background="new 0 0 30 30" xml:space="preserve">
<metadata  id="metadata19">
	<rdf:RDF>
		<cc:Work  rdf:about="">
			<dc:format>image/svg+xml</dc:format>
			<dc:type  rdf:resource="http://purl.org/dc/dcmitype/StillImage"></dc:type>
			<dc:title></dc:title>
		</cc:Work>
	</rdf:RDF>
	<sfw  xmlns="&ns_sfw;">
		<slices></slices>
		<sliceSourceBounds  width="30" height="30" x="56" y="53" bottomLeftOrigin="true"></sliceSourceBounds>
	</sfw>
</metadata>
<sodipodi:namedview  inkscape:zoom="7.8666667" bordercolor="#666666" borderopacity="1" pagecolor="#ffffff" inkscape:cx="15" guidetolerance="10" gridtolerance="10" showgrid="false" inkscape:cy="15" objecttolerance="10" id="namedview17" inkscape:window-maximized="0" inkscape:pageopacity="0" inkscape:current-layer="svg2" inkscape:window-width="640" inkscape:window-y="0" inkscape:pageshadow="2" inkscape:window-height="480" inkscape:window-x="0">
	</sodipodi:namedview>
<path id="path4" inkscape:connector-curvature="0" fill="#FFFFFF" d="M13.208,5.208v15l-5.293-5.293
	c-0.389-0.389-1.025-0.389-1.414,0l-1.586,1.586c-0.389,0.389-0.389,1.025,0,1.414l9.586,9.586c0.389,0.389,1.025,0.389,1.414,0
	l9.586-9.586c0.389-0.389,0.389-1.025,0-1.414l-1.586-1.586c-0.389-0.389-1.025-0.389-1.414,0l-5.293,5.293v-15c0-0.549-0.449-1-1-1
	h-2C13.659,4.208,13.208,4.659,13.208,5.208z"/>
<linearGradient id="path6_1_" gradientUnits="userSpaceOnUse" x1="-106.1615" y1="12" x2="-81.3854" y2="12" gradientTransform="matrix(0 -1 -1 0 27.2076 -77.7924)">
	<stop  offset="0" style="stop-color:#EFEFEF"/>
	<stop  offset="1" style="stop-color:#FFFFFF"/>
</linearGradient>
<path id="path6" inkscape:connector-curvature="0" fill="url(#path6_1_)" d="M13.208,4.208v15l-5.293-5.293
	c-0.389-0.389-1.025-0.389-1.414,0l-1.586,1.586c-0.389,0.389-0.389,1.025,0,1.414l9.586,9.586c0.389,0.389,1.025,0.389,1.414,0
	l9.586-9.586c0.389-0.389,0.389-1.025,0-1.414l-1.586-1.586c-0.389-0.389-1.025-0.389-1.414,0l-5.293,5.293v-15c0-0.549-0.449-1-1-1
	h-2C13.658,3.208,13.208,3.659,13.208,4.208z"/>
<rect id="rect8" fill="none" width="30" height="30"/>
</svg>
