<?xml version="1.0" encoding="utf-8"?>
<!-- Generator: Adobe Illustrator 17.1.0, SVG Export Plug-In . SVG Version: 6.00 Build 0)  -->
<!DOCTYPE svg PUBLIC "-//W3C//DTD SVG 1.1//EN" "http://www.w3.org/Graphics/SVG/1.1/DTD/svg11.dtd" [
	<!ENTITY ns_extend "http://ns.adobe.com/Extensibility/1.0/">
	<!ENTITY ns_ai "http://ns.adobe.com/AdobeIllustrator/10.0/">
	<!ENTITY ns_graphs "http://ns.adobe.com/Graphs/1.0/">
	<!ENTITY ns_vars "http://ns.adobe.com/Variables/1.0/">
	<!ENTITY ns_imrep "http://ns.adobe.com/ImageReplacement/1.0/">
	<!ENTITY ns_sfw "http://ns.adobe.com/SaveForWeb/1.0/">
	<!ENTITY ns_custom "http://ns.adobe.com/GenericCustomNamespace/1.0/">
	<!ENTITY ns_adobe_xpath "http://ns.adobe.com/XPath/1.0/">
]>
<svg version="1.1" id="图层_1" xmlns:x="&ns_extend;" xmlns:i="&ns_ai;" xmlns:graph="&ns_graphs;"
	 xmlns="http://www.w3.org/2000/svg" xmlns:xlink="http://www.w3.org/1999/xlink" x="0px" y="0px" width="30px" height="30px"
	 viewBox="0 0 30 30" enable-background="new 0 0 30 30" xml:space="preserve">
<metadata>
	<sfw  xmlns="&ns_sfw;">
		<slices></slices>
		<sliceSourceBounds  width="30" height="30" y="53" x="56" bottomLeftOrigin="true"></sliceSourceBounds>
	</sfw>
</metadata>
<g>
	<g id="DO_NOT_EDIT_-_BOUNDING_BOX">
		<rect id="BOUNDING_BOX" fill="none" width="30" height="30"/>
	</g>
	<path fill="#FFFFFF" d="M25.751,26.385c-0.247-0.993-1.44-1.592-1.44-1.592c-1.785-1.044-3.557-1.732-3.557-1.732
		c-0.248-0.095-0.466-0.208-0.664-0.333c-1.089-0.748-1.647-2.08-1.7-2.283c-0.153-0.614-0.289-1.263-0.071-1.47
		c1.102-0.956,1.54-3.228,1.54-3.228c0.029-0.088,0.056-0.172,0.088-0.25c0.541,0.662,0.817-0.898,1.042-1.614
		c0.234-0.753,0.332-1.247,0.332-1.247c0.095-0.768-0.487-0.541-0.487-0.541l-0.045,0.05c0.084-1.068,0.393-1.72,0.393-2.683
		c0.006-1.487,0.372-2.027-1.144-4.305c-0.47-0.705-1.119-0.821-3.807-1.688c-2.681-0.868-3.063,0.231-3.953,0.126
		c-0.89-0.107-1.011,0.256-1.185,0.576c-0.173,0.315,0,0.569-0.485,0.591c-0.489,0.021-0.705,0.393-0.705,0.393
		C8.453,7.478,8.99,8.174,8.941,9.66c-0.027,0.787,0.1,1.376,0.511,2.465l-0.044-0.06c0,0-0.567-0.267-0.525,0.503
		c0,0-0.079,0.24,0.243,1.273c0.193,0.592,0.341,2.24,0.893,1.718c0.017,0.06,0.044,0.127,0.063,0.188c0,0,0.434,2.272,1.536,3.228
		c0.224,0.208,0.082,0.858-0.071,1.47c-0.063,0.235-0.377,1.841-2.318,2.616c0,0-1.772,0.689-3.553,1.732c0,0-1.2,0.599-1.449,1.592
		l-0.026,0.148c1.013,0.58,2.21,1.052,3.602,1.414c3.402,0.88,5.745,0.859,7.334,0.825c1.587,0.034,3.928,0.056,7.332-0.825
		c1.289-0.334,2.387-0.768,3.335-1.295L25.751,26.385z"/>
	<path opacity="0.15" enable-background="new    " d="M25.751,25.469c-0.247-0.993-1.44-1.592-1.44-1.592
		c-1.785-1.044-3.557-1.732-3.557-1.732c-0.248-0.095-0.466-0.208-0.664-0.333c-1.089-0.748-1.647-2.08-1.7-2.283
		c-0.153-0.614-0.289-1.263-0.071-1.47c1.102-0.956,1.54-3.228,1.54-3.228c0.029-0.088,0.056-0.172,0.088-0.25
		c0.541,0.662,0.817-0.898,1.042-1.614c0.234-0.753,0.332-1.247,0.332-1.247c0.095-0.768-0.487-0.541-0.487-0.541l-0.045,0.05
		c0.084-1.068,0.393-1.72,0.393-2.683c0.006-1.487,0.372-2.027-1.144-4.305c-0.47-0.705-1.119-0.821-3.807-1.688
		c-2.681-0.868-3.063,0.231-3.953,0.126c-0.89-0.107-1.011,0.256-1.185,0.576c-0.173,0.315,0,0.569-0.485,0.591
		C10.117,3.868,9.901,4.24,9.901,4.24C8.453,6.562,8.99,7.258,8.941,8.743c-0.026,0.787,0.1,1.376,0.512,2.465l-0.045-0.06
		c0,0-0.567-0.267-0.525,0.503c0,0-0.079,0.24,0.243,1.273c0.193,0.592,0.341,2.24,0.893,1.718c0.017,0.06,0.044,0.127,0.063,0.188
		c0,0,0.434,2.272,1.536,3.228c0.224,0.208,0.082,0.858-0.071,1.47c-0.063,0.235-0.377,1.841-2.318,2.616
		c0,0-1.772,0.689-3.553,1.732c0,0-1.2,0.599-1.449,1.592l-0.026,0.148c1.013,0.58,2.21,1.052,3.602,1.414
		c3.402,0.88,5.745,0.859,7.334,0.825c1.587,0.034,3.928,0.056,7.332-0.825c1.289-0.334,2.387-0.768,3.335-1.295L25.751,25.469z"/>
	<linearGradient id="SVGID_1_" gradientUnits="userSpaceOnUse" x1="15.003" y1="27.8667" x2="15.003" y2="2.2177">
		<stop  offset="0" style="stop-color:#636363"/>
		<stop  offset="1" style="stop-color:#000000"/>
	</linearGradient>
	<path fill="url(#SVGID_1_)" d="M25.751,25.469c-0.247-0.993-1.44-1.592-1.44-1.592c-1.785-1.044-3.557-1.732-3.557-1.732
		c-0.248-0.095-0.466-0.208-0.664-0.333c-1.089-0.748-1.647-2.08-1.7-2.283c-0.153-0.614-0.289-1.263-0.071-1.47
		c1.102-0.956,1.54-3.228,1.54-3.228c0.029-0.088,0.056-0.172,0.088-0.25c0.541,0.662,0.817-0.898,1.042-1.614
		c0.234-0.753,0.332-1.247,0.332-1.247c0.095-0.768-0.487-0.541-0.487-0.541l-0.045,0.05c0.084-1.068,0.393-1.72,0.393-2.683
		c0.006-1.487,0.372-2.027-1.144-4.305c-0.47-0.705-1.119-0.821-3.807-1.688c-2.681-0.868-3.063,0.231-3.953,0.126
		c-0.89-0.107-1.011,0.256-1.185,0.576c-0.173,0.315,0,0.569-0.485,0.591C10.117,3.868,9.901,4.24,9.901,4.24
		C8.453,6.562,8.99,7.258,8.941,8.743c-0.026,0.787,0.1,1.376,0.512,2.465l-0.045-0.06c0,0-0.567-0.267-0.525,0.503
		c0,0-0.079,0.24,0.243,1.273c0.193,0.592,0.341,2.24,0.893,1.718c0.017,0.06,0.044,0.127,0.063,0.188c0,0,0.434,2.272,1.536,3.228
		c0.224,0.208,0.082,0.858-0.071,1.47c-0.063,0.235-0.377,1.841-2.318,2.616c0,0-1.772,0.689-3.553,1.732c0,0-1.2,0.599-1.449,1.592
		l-0.026,0.148c1.013,0.58,2.21,1.052,3.602,1.414c3.402,0.88,5.745,0.859,7.334,0.825c1.587,0.034,3.928,0.056,7.332-0.825
		c1.289-0.334,2.387-0.768,3.335-1.295L25.751,25.469z"/>
	<rect fill="none" width="30" height="30"/>
</g>
</svg>
