<?xml version="1.0" encoding="utf-8"?>
<!-- Generator: Adobe Illustrator 17.1.0, SVG Export Plug-In . SVG Version: 6.00 Build 0)  -->
<!DOCTYPE svg PUBLIC "-//W3C//DTD SVG 1.1//EN" "http://www.w3.org/Graphics/SVG/1.1/DTD/svg11.dtd">
<svg version="1.1" id="图层_1" xmlns="http://www.w3.org/2000/svg" xmlns:xlink="http://www.w3.org/1999/xlink" x="0px" y="0px"
	 width="120px" height="215px" viewBox="0 0 120 215" enable-background="new 0 0 120 215" xml:space="preserve">
<rect opacity="0.5" fill="#B4B4B4" enable-background="new    " width="120" height="215"/>
<g enable-background="new    ">
	<path fill="#FFFFFF" d="M91.234,186.938c-1.031,0-1.547-0.547-1.547-1.641c0-1.063,0.516-1.594,1.547-1.594
		s1.547,0.531,1.547,1.594C92.781,186.391,92.266,186.938,91.234,186.938z M91.234,196.078c-1.031,0-1.547-0.547-1.547-1.641
		c0-1.063,0.516-1.594,1.547-1.594s1.547,0.531,1.547,1.594C92.781,195.531,92.266,196.078,91.234,196.078z"/>
</g>
<g enable-background="new    ">
	<path fill="#FFFFFF" d="M103.125,197.588c-1.563-2.525-2.344-5.226-2.344-8.101c0-2.75,0.781-5.462,2.344-8.138h2.109
		c-1.438,2.625-2.156,5.338-2.156,8.138c0,2.775,0.719,5.476,2.156,8.101C105.234,197.588,103.125,197.588,103.125,197.588z"/>
</g>
</svg>
