<?xml version="1.0" encoding="utf-8"?>
<!-- Generator: Adobe Illustrator 18.1.1, SVG Export Plug-In . SVG Version: 6.00 Build 0)  -->
<svg version="1.1" id="图层_1" xmlns="http://www.w3.org/2000/svg" xmlns:xlink="http://www.w3.org/1999/xlink" x="0px" y="0px"
	 width="60px" height="60px" viewBox="0 0 60 60" enable-background="new 0 0 60 60" xml:space="preserve">
<path opacity="0.5" fill="#B4B4B4" enable-background="new    " d="M60,30c0,22.226-7.771,30-30,30C7.776,60,0,52.226,0,30
	C0,7.776,7.776,0,30,0C52.227,0,60,7.776,60,30z"/>
<path fill="#FFFFFF" d="M36.234,36.938c-1.031,0-1.547-0.547-1.547-1.641c0-1.063,0.516-1.594,1.547-1.594s1.547,0.531,1.547,1.594
	C37.781,36.391,37.266,36.938,36.234,36.938z M36.234,46.078c-1.031,0-1.547-0.547-1.547-1.641c0-1.063,0.516-1.594,1.547-1.594
	s1.547,0.531,1.547,1.594C37.781,45.531,37.266,46.078,36.234,46.078z"/>
<path fill="#FFFFFF" d="M48.125,47.588c-1.563-2.525-2.344-5.226-2.344-8.101c0-2.75,0.781-5.462,2.344-8.138h2.109
	c-1.438,2.625-2.156,5.338-2.156,8.138c0,2.775,0.719,5.476,2.156,8.101C50.234,47.588,48.125,47.588,48.125,47.588z"/>
</svg>
