<?xml version="1.0" encoding="utf-8"?>
<!-- Generator: Adobe Illustrator 17.1.0, SVG Export Plug-In . SVG Version: 6.00 Build 0)  -->
<!DOCTYPE svg PUBLIC "-//W3C//DTD SVG 1.1//EN" "http://www.w3.org/Graphics/SVG/1.1/DTD/svg11.dtd" [
	<!ENTITY ns_extend "http://ns.adobe.com/Extensibility/1.0/">
	<!ENTITY ns_ai "http://ns.adobe.com/AdobeIllustrator/10.0/">
	<!ENTITY ns_graphs "http://ns.adobe.com/Graphs/1.0/">
	<!ENTITY ns_vars "http://ns.adobe.com/Variables/1.0/">
	<!ENTITY ns_imrep "http://ns.adobe.com/ImageReplacement/1.0/">
	<!ENTITY ns_sfw "http://ns.adobe.com/SaveForWeb/1.0/">
	<!ENTITY ns_custom "http://ns.adobe.com/GenericCustomNamespace/1.0/">
	<!ENTITY ns_adobe_xpath "http://ns.adobe.com/XPath/1.0/">
]>
<svg version="1.1" id="图层_1" xmlns:x="&ns_extend;" xmlns:i="&ns_ai;" xmlns:graph="&ns_graphs;"
	 xmlns="http://www.w3.org/2000/svg" xmlns:xlink="http://www.w3.org/1999/xlink" x="0px" y="0px" width="30px" height="30px"
	 viewBox="0 0 30 30" enable-background="new 0 0 30 30" xml:space="preserve">
<metadata>
	<sfw  xmlns="&ns_sfw;">
		<slices></slices>
		<sliceSourceBounds  width="30" height="30" y="53" x="56" bottomLeftOrigin="true"></sliceSourceBounds>
	</sfw>
</metadata>
<path fill="#FFFFFF" d="M25.657,23.52l-4.286-4.287c0.912-1.463,1.447-3.185,1.447-5.036c0-5.278-4.278-9.556-9.556-9.556
	S3.707,8.92,3.707,14.197c0,5.276,4.278,9.556,9.556,9.556c1.851,0,3.573-0.536,5.038-1.447l4.286,4.286
	c0.85,0.85,2.224,0.85,3.071,0C26.505,25.743,26.505,24.369,25.657,23.52z M13.263,20.712c-3.594,0-6.515-2.923-6.515-6.515
	c0-3.593,2.921-6.515,6.515-6.515s6.515,2.922,6.515,6.515C19.778,17.789,16.856,20.712,13.263,20.712z"/>
<linearGradient id="SVGID_1_" gradientUnits="userSpaceOnUse" x1="15" y1="5.51" x2="15" y2="24.8286" gradientTransform="matrix(1 0 0 -1 0 31)">
	<stop  offset="0" style="stop-color:#636363"/>
	<stop  offset="1" style="stop-color:#000000"/>
</linearGradient>
<path fill="url(#SVGID_1_)" d="M25.657,22.651l-4.286-4.287c0.912-1.463,1.447-3.185,1.447-5.036c0-5.278-4.278-9.556-9.556-9.556
	s-9.556,4.278-9.556,9.556c0,5.276,4.278,9.556,9.556,9.556c1.851,0,3.573-0.536,5.038-1.447l4.286,4.286
	c0.85,0.85,2.224,0.85,3.071,0C26.505,24.874,26.505,23.5,25.657,22.651z M13.263,19.844c-3.594,0-6.515-2.923-6.515-6.515
	c0-3.593,2.921-6.515,6.515-6.515s6.515,2.922,6.515,6.515C19.778,16.92,16.856,19.844,13.263,19.844z"/>
<rect fill="none" width="30" height="30"/>
</svg>
