<?xml version="1.0" encoding="utf-8"?>
<!-- Generator: Adobe Illustrator 18.0.0, SVG Export Plug-In . SVG Version: 6.00 Build 0)  -->
<!DOCTYPE svg PUBLIC "-//W3C//DTD SVG 1.1//EN" "http://www.w3.org/Graphics/SVG/1.1/DTD/svg11.dtd">
<svg version="1.1" id="图层_1" xmlns="http://www.w3.org/2000/svg" xmlns:xlink="http://www.w3.org/1999/xlink" x="0px" y="0px"
	 viewBox="-5 -5 40 40" enable-background="new -5 -5 40 40" xml:space="preserve">
<path fill="#FFFFFF" d="M29.7,13.7h-20l7.1-7.1c0.5-0.5,0.5-1.4,0-1.9l-2.1-2.1c-0.5-0.5-1.4-0.5-1.9,0L-0.1,15.4
	c-0.5,0.5-0.5,1.4,0,1.9l12.8,12.8c0.5,0.5,1.4,0.5,1.9,0l2.1-2.1c0.5-0.5,0.5-1.4,0-1.9L9.7,19h20c0.7,0,1.3-0.6,1.3-1.3V15
	C31,14.3,30.4,13.7,29.7,13.7z"/>
<linearGradient id="SVGID_1_" gradientUnits="userSpaceOnUse" x1="15.2768" y1="792" x2="15.2768" y2="762.3483" gradientTransform="matrix(1 0 0 1 0 -761)">
	<stop  offset="0" style="stop-color:#636363"/>
	<stop  offset="1" style="stop-color:#000000"/>
</linearGradient>
<path fill="url(#SVGID_1_)" d="M29.7,12.3h-20l7.1-7.1c0.5-0.5,0.5-1.4,0-1.9l-2.1-2.1c-0.5-0.5-1.4-0.5-1.9,0L-0.1,14.1
	c-0.5,0.5-0.5,1.4,0,1.9l12.8,12.8c0.5,0.5,1.4,0.5,1.9,0l2.1-2.1c0.5-0.5,0.5-1.4,0-1.9l-7.1-7.1h20c0.7,0,1.3-0.6,1.3-1.3v-2.7
	C31,12.9,30.4,12.3,29.7,12.3z"/>
<rect x="-5" y="-5" fill="none" width="40" height="40"/>
</svg>
